<svg width="527" height="408" viewBox="0 0 527 408" fill="none" xmlns="http://www.w3.org/2000/svg">
<path d="M454.156 52.2189C454.156 53.8126 453.641 55.4532 452.609 57.1407C451.578 58.8282 450.219 60.4689 448.531 62.0626C446.875 63.6251 445 65.1095 442.906 66.5157C440.844 67.922 438.75 69.172 436.625 70.2657C434.531 71.3282 432.516 72.172 430.578 72.797C428.641 73.4532 427 73.797 425.656 73.8282C424.375 73.8907 423 73.7814 421.531 73.5001C420.062 73.2189 418.656 72.8595 417.312 72.422C416 72.0157 414.812 71.5782 413.75 71.1095C412.719 70.6095 412.016 70.172 411.641 69.797C411.422 69.547 411.234 69.2814 411.078 69.0001C410.953 68.6876 410.891 68.3595 410.891 68.0157C410.891 67.6407 410.984 67.2657 411.172 66.8907C411.391 66.4845 411.734 66.0782 412.203 65.672C412.641 65.3282 413.188 64.8907 413.844 64.3595C414.406 63.922 415.125 63.3595 416 62.672C416.875 61.9532 417.953 61.0939 419.234 60.0939C418.766 60.5626 418.469 61.0001 418.344 61.4064C418.219 61.8126 418.172 62.1876 418.203 62.5314C418.234 62.9064 418.359 63.2501 418.578 63.5626C418.891 63.9689 419.438 64.422 420.219 64.922C421 65.422 421.938 65.8907 423.031 66.3282C424.156 66.7345 425.406 67.0782 426.781 67.3595C428.188 67.6407 429.641 67.7814 431.141 67.7814C432.984 67.7814 434.812 67.6095 436.625 67.2657C438.438 66.8907 440.062 66.2814 441.5 65.4376C442.969 64.5939 444.141 63.4845 445.016 62.1095C445.922 60.7032 446.375 58.9689 446.375 56.9064C446.375 55.0001 445.922 53.3282 445.016 51.8907C444.141 50.422 442.984 49.1095 441.547 47.9532C440.109 46.797 438.453 45.7501 436.578 44.8126C434.734 43.8439 432.844 42.8907 430.906 41.9532C429 41.0157 427.109 40.0626 425.234 39.0939C423.391 38.1251 421.75 37.047 420.312 35.8595C418.875 34.6407 417.703 33.2814 416.797 31.7814C415.922 30.2501 415.484 28.4845 415.484 26.4845C415.484 24.547 415.953 22.6564 416.891 20.8126C417.859 18.9376 419.125 17.1876 420.688 15.5626C422.25 13.9064 424.031 12.3751 426.031 10.9689C428.062 9.5626 430.141 8.35948 432.266 7.35948C434.391 6.32823 436.469 5.53135 438.5 4.96885C440.562 4.3751 442.422 4.0626 444.078 4.03135C445.672 4.0001 447.203 4.07823 448.672 4.26573C450.141 4.42198 451.375 4.67198 452.375 5.01573C453.375 5.35948 454.062 5.79698 454.438 6.32823C454.812 6.82823 454.719 7.40635 454.156 8.0626C453.688 8.59385 453.109 9.15635 452.422 9.7501C451.797 10.2814 451.031 10.8751 450.125 11.5314C449.219 12.1876 448.109 12.8907 446.797 13.6407C447.047 13.2657 447.188 12.9376 447.219 12.6564C447.25 12.3439 447.234 12.0939 447.172 11.9064C447.078 11.6876 446.953 11.5001 446.797 11.3439C446.578 11.1564 446.188 10.9532 445.625 10.7345C445.094 10.5157 444.422 10.297 443.609 10.0782C442.797 9.85948 441.875 9.6876 440.844 9.5626C439.812 9.40635 438.719 9.32823 437.562 9.32823C435.688 9.32823 433.875 9.5626 432.125 10.0314C430.406 10.4689 428.875 11.1564 427.531 12.0939C426.219 13.0314 425.156 14.2189 424.344 15.6564C423.562 17.0939 423.172 18.7814 423.172 20.7189C423.172 22.8439 423.609 24.7032 424.484 26.297C425.391 27.8907 426.562 29.3126 428 30.5626C429.469 31.7814 431.125 32.8907 432.969 33.8907C434.844 34.8907 436.734 35.8595 438.641 36.797C440.578 37.7032 442.469 38.6407 444.312 39.6095C446.188 40.5782 447.844 41.6564 449.281 42.8439C450.75 44.0314 451.922 45.3907 452.797 46.922C453.703 48.422 454.156 50.1876 454.156 52.2189Z" fill="white"/>
<path d="M406.578 6.60938C406.547 7.07812 406.469 7.70312 406.344 8.48438C406.219 9.26562 406.047 10.1406 405.828 11.1094C405.641 12.0469 405.406 13.0312 405.125 14.0625C404.875 15.0938 404.609 16.0781 404.328 17.0156C404.047 17.9219 403.766 18.75 403.484 19.5C403.203 20.2188 402.922 20.7656 402.641 21.1406C402.203 21.7969 401.734 22.5 401.234 23.25C400.766 23.9688 400.266 24.6719 399.734 25.3594V21.5156C399.734 20.2031 399.719 18.75 399.688 17.1562C399.656 15.5625 399.562 14.0781 399.406 12.7031C399.281 11.2969 399.078 10.1406 398.797 9.23438C398.547 8.29688 398.188 7.84375 397.719 7.875C398.125 7.375 398.625 6.84375 399.219 6.28125C399.812 5.71875 400.438 5.20312 401.094 4.73438C401.781 4.26562 402.469 3.875 403.156 3.5625C403.844 3.25 404.5 3.09375 405.125 3.09375C405.5 3.09375 405.781 3.23438 405.969 3.51562C406.156 3.76562 406.297 4.07812 406.391 4.45312C406.484 4.79688 406.531 5.17188 406.531 5.57812C406.562 5.98438 406.578 6.32812 406.578 6.60938Z" fill="white"/>
<path d="M380.375 2.57812C378.906 3.54688 377.578 4.375 376.391 5.0625C375.234 5.71875 374.125 6.26562 373.062 6.70312C372.906 12.3594 372.766 17.4219 372.641 21.8906C372.547 26.3594 372.453 30.3281 372.359 33.7969C372.297 37.2344 372.234 40.2188 372.172 42.75C372.141 45.25 372.109 47.3906 372.078 49.1719C371.984 53.3281 371.953 56.1719 371.984 57.7031C371.953 58.8594 371.828 59.9688 371.609 61.0312C371.422 61.9375 371.125 62.9062 370.719 63.9375C370.312 64.9375 369.75 65.7969 369.031 66.5156C370.906 66.5781 372.656 66.6094 374.281 66.6094C375.938 66.6094 377.516 66.6094 379.016 66.6094C383.297 66.6094 386.828 66.5469 389.609 66.4219C392.391 66.2969 394.609 66.1562 396.266 66C397.922 65.8125 399.094 65.6562 399.781 65.5312C400.469 65.375 400.875 65.2656 401 65.2031C399.344 66.3281 397.969 67.2969 396.875 68.1094C395.781 68.9219 394.797 69.5938 393.922 70.125C393.078 70.625 392.234 71 391.391 71.25C390.578 71.5 389.625 71.625 388.531 71.625H381.312C379.281 71.625 377.078 71.6406 374.703 71.6719C372.328 71.6719 370.062 71.7031 367.906 71.7656C365.75 71.7969 363.812 71.875 362.094 72C360.406 72.0938 359.203 72.2188 358.484 72.375C359.359 71.625 360.156 70.8125 360.875 69.9375C361.594 69.0625 362.203 67.9844 362.703 66.7031C363.234 65.4219 363.641 63.8906 363.922 62.1094C364.203 60.2969 364.344 58.125 364.344 55.5938V8.25C363.375 8.34375 362.203 8.46875 360.828 8.625C359.453 8.78125 357.891 8.98438 356.141 9.23438C357.828 7.85938 359.344 6.8125 360.688 6.09375C362.062 5.375 363.234 4.84375 364.203 4.5C365.328 4.125 366.328 3.90625 367.203 3.84375C368.297 3.875 369.5 3.85938 370.812 3.79688C372.156 3.73438 373.438 3.65625 374.656 3.5625C375.906 3.4375 377.047 3.29688 378.078 3.14062C379.109 2.95312 379.875 2.76562 380.375 2.57812ZM401 65.2031V65.1562C401.031 65.125 401.062 65.1094 401.094 65.1094L401 65.2031Z" fill="white"/>
<path d="M305.328 4.3125C304.078 5.1875 302.688 6.10938 301.156 7.07812C299.656 8.04688 298.203 8.82812 296.797 9.42188C296.672 13.4219 296.562 17.0625 296.469 20.3438C296.406 23.625 296.328 26.5938 296.234 29.25C296.172 31.875 296.125 34.2031 296.094 36.2344C296.062 38.2656 296.031 40.0469 296 41.5781C295.938 45.1406 295.922 47.8594 295.953 49.7344C295.891 51.9531 296.203 54.1094 296.891 56.2031C297.578 58.2969 298.688 60.1719 300.219 61.8281C301.781 63.4844 303.812 64.8125 306.312 65.8125C308.812 66.8125 311.844 67.3125 315.406 67.3125C317.344 67.25 319.359 66.9688 321.453 66.4688C323.234 66.0312 325.203 65.375 327.359 64.5C329.516 63.625 331.625 62.3438 333.688 60.6562V9.98438C333.25 9.92188 332.797 9.89062 332.328 9.89062C331.859 9.89062 331.406 9.89062 330.969 9.89062C330.094 9.89062 329.219 9.92188 328.344 9.98438C327.5 10.0156 326.719 10.0781 326 10.1719C327.469 8.85938 328.766 7.85938 329.891 7.17188C331.047 6.48438 332.031 5.96875 332.844 5.625C333.781 5.25 334.594 5.03125 335.281 4.96875C335.875 4.96875 336.625 4.96875 337.531 4.96875C338.438 4.9375 339.391 4.90625 340.391 4.875C341.422 4.84375 342.453 4.8125 343.484 4.78125C344.547 4.71875 345.516 4.67188 346.391 4.64062C347.297 4.57812 348.062 4.53125 348.688 4.5C349.344 4.4375 349.781 4.375 350 4.3125C348.906 5.09375 347.672 5.92188 346.297 6.79688C344.953 7.64062 343.656 8.34375 342.406 8.90625V57.2344C342.375 58.7656 342.281 60.1875 342.125 61.5C341.969 62.625 341.75 63.7344 341.469 64.8281C341.219 65.8906 340.828 66.625 340.297 67.0312C342.047 67.2812 343.594 67.4375 344.938 67.5C346.281 67.5625 347.453 67.5938 348.453 67.5938C350.234 67.5938 351.516 67.5312 352.297 67.4062C353.078 67.2812 353.516 67.1875 353.609 67.125C352.141 67.9688 350.797 68.7031 349.578 69.3281C348.359 69.9219 347.203 70.4219 346.109 70.8281C345.047 71.2031 344 71.5 342.969 71.7188C341.969 71.9062 340.953 72 339.922 72H330.781C331.5 71.75 332.047 71.2031 332.422 70.3594C332.828 69.5156 333.125 68.6406 333.312 67.7344C333.531 66.7031 333.656 65.5625 333.688 64.3125V62.1094C330.375 64.7969 327.219 66.8594 324.219 68.2969C321.219 69.7344 318.547 70.7812 316.203 71.4375C313.484 72.2188 310.922 72.6562 308.516 72.75C304.578 72.75 301.266 72.2344 298.578 71.2031C295.922 70.1406 293.781 68.6719 292.156 66.7969C290.562 64.9219 289.422 62.6719 288.734 60.0469C288.078 57.4219 287.797 54.5312 287.891 51.375C287.859 48.7812 287.875 45.5156 287.938 41.5781C287.969 38.2031 288.016 33.9219 288.078 28.7344C288.172 23.5156 288.297 17.2344 288.453 9.89062H286.344C285.469 9.89062 284.594 9.92188 283.719 9.98438C282.844 10.0156 282.047 10.0781 281.328 10.1719C282.797 8.85938 284.094 7.85938 285.219 7.17188C286.375 6.48438 287.359 5.96875 288.172 5.625C289.109 5.25 289.938 5.03125 290.656 4.96875C291.25 4.96875 292 4.96875 292.906 4.96875C293.812 4.9375 294.766 4.90625 295.766 4.875C296.797 4.84375 297.828 4.8125 298.859 4.78125C299.922 4.71875 300.891 4.67188 301.766 4.64062C302.672 4.57812 303.438 4.53125 304.062 4.5C304.688 4.4375 305.109 4.375 305.328 4.3125ZM353.609 67.125V67.0781H353.656C353.688 67.0469 353.719 67.0312 353.75 67.0312L353.609 67.125Z" fill="white"/>
<path d="M270.641 35.25C270.359 35.375 269.938 35.6094 269.375 35.9531C268.875 36.2656 268.156 36.7344 267.219 37.3594C266.312 37.9531 265.109 38.7812 263.609 39.8438C263.859 39.375 263.844 39.0156 263.562 38.7656C263.312 38.5156 262.969 38.3438 262.531 38.25C262 38.125 261.375 38.0781 260.656 38.1094C259.531 38.2031 257.906 38.3125 255.781 38.4375C253.688 38.5625 251.312 38.6719 248.656 38.7656C248.656 43.7656 248.625 47.8438 248.562 51C248.5 54.125 248.453 56.5625 248.422 58.3125C248.359 60.375 248.297 61.8906 248.234 62.8594C248.172 63.4844 247.984 64.0938 247.672 64.6875C247.422 65.2188 247.016 65.7812 246.453 66.375C245.922 66.9688 245.172 67.5 244.203 67.9688H265.438C266.438 67.9688 267.453 67.9062 268.484 67.7812C269.359 67.6875 270.297 67.5312 271.297 67.3125C272.297 67.0938 273.25 66.7656 274.156 66.3281C272.594 67.7969 271.047 68.9219 269.516 69.7031C267.984 70.4844 266.578 71.0469 265.297 71.3906C263.797 71.7969 262.375 72.0312 261.031 72.0938C257.969 72.0938 255.078 72.1094 252.359 72.1406C249.641 72.1719 247.188 72.2344 245 72.3281C242.812 72.4219 240.938 72.5312 239.375 72.6562C237.844 72.8125 236.734 72.9844 236.047 73.1719C237.016 72.2031 237.766 71.25 238.297 70.3125C238.859 69.375 239.281 68.3281 239.562 67.1719C239.844 66.0156 240.016 64.7188 240.078 63.2812C240.172 61.8125 240.203 60.0781 240.172 58.0781V38.8594C239.266 38.8594 238.375 38.8438 237.5 38.8125C236.656 38.7812 235.828 38.7344 235.016 38.6719L240.172 36C240.172 34.3125 240.156 32.5469 240.125 30.7031C240.125 28.8281 240.125 26.8281 240.125 24.7031C240.125 22.5781 240.109 20.2969 240.078 17.8594C240.078 15.3906 240.078 12.7031 240.078 9.79688C238.672 9.79688 237.344 9.78125 236.094 9.75C234.844 9.71875 233.688 9.67188 232.625 9.60938L241.344 4.96875C247.281 4.96875 252.344 4.9375 256.531 4.875C260.75 4.78125 264.234 4.6875 266.984 4.59375C270.172 4.46875 272.828 4.34375 274.953 4.21875C276.016 4.21875 276.719 4.3125 277.062 4.5C277.406 4.65625 277.547 4.84375 277.484 5.0625C277.422 5.25 277.234 5.45312 276.922 5.67188C276.609 5.89062 276.328 6.04688 276.078 6.14062C275.828 6.26562 275.359 6.53125 274.672 6.9375C274.078 7.28125 273.234 7.82812 272.141 8.57812C271.078 9.29688 269.609 10.2812 267.734 11.5312C268.359 10.8438 268.625 10.3438 268.531 10.0312C268.438 9.6875 268.219 9.4375 267.875 9.28125C267.469 9.125 266.906 9.04688 266.188 9.04688C265.594 9.10938 264.703 9.17188 263.516 9.23438C262.328 9.26562 260.938 9.3125 259.344 9.375C257.781 9.4375 256.078 9.5 254.234 9.5625C252.391 9.625 250.5 9.67188 248.562 9.70312C248.594 14.7031 248.609 19.1875 248.609 23.1562C248.641 27.125 248.656 30.7656 248.656 34.0781C251.844 34.0469 254.703 34 257.234 33.9375C259.797 33.8438 261.984 33.75 263.797 33.6562C265.922 33.5312 267.812 33.4219 269.469 33.3281C270.5 33.2969 271.188 33.3594 271.531 33.5156C271.875 33.6719 272.016 33.8594 271.953 34.0781C271.891 34.2969 271.703 34.5312 271.391 34.7812C271.109 35 270.859 35.1562 270.641 35.25Z" fill="white"/>
<path d="M170.797 63.375C170.734 63.6562 170.594 63.9844 170.375 64.3594C170.188 64.7031 169.922 65.1406 169.578 65.6719C169.234 66.1719 168.766 66.7812 168.172 67.5C169.078 67.6875 169.984 67.8125 170.891 67.875C171.828 67.9375 172.688 67.9688 173.469 67.9688C175.031 67.9688 176.297 67.9062 177.266 67.7812C178.266 67.6562 178.859 67.5625 179.047 67.5C177.578 68.1875 176.359 68.8281 175.391 69.4219C174.422 70.0156 173.422 70.5312 172.391 70.9688C171.391 71.4062 170.234 71.7656 168.922 72.0469C167.641 72.3594 165.922 72.5625 163.766 72.6562C163.891 72.5938 164.094 72.3438 164.375 71.9062L163.484 72.6562C163.047 72.7188 162.594 72.75 162.125 72.75C161.656 72.75 161.188 72.75 160.719 72.75L165.031 69.5156C165.156 68.7656 165.281 67.9219 165.406 66.9844C165.531 66.0156 165.641 65.0156 165.734 63.9844C165.828 62.9531 165.922 61.9219 166.016 60.8906C166.109 59.8281 166.188 58.7969 166.25 57.7969C166.406 55.4844 166.547 53.1094 166.672 50.6719C166.828 43.5781 166.938 36.6094 167 29.7656C167.094 22.8906 167.141 15.9844 167.141 9.04688L172.344 0.65625C172.531 3.65625 173.109 6.54688 174.078 9.32812C175.047 12.1094 176.312 14.8125 177.875 17.4375C179.438 20.0312 181.219 22.5469 183.219 24.9844C185.219 27.3906 187.344 29.75 189.594 32.0625C191.844 34.375 194.141 36.6406 196.484 38.8594C198.828 41.0781 201.109 43.2812 203.328 45.4688C205.547 47.625 207.641 49.7812 209.609 51.9375C211.609 54.0625 213.359 56.2031 214.859 58.3594C215.328 51.5781 215.625 44.9688 215.75 38.5312C215.906 32.0625 215.984 25.625 215.984 19.2188C215.984 16.3438 215.906 14.0938 215.75 12.4688C215.594 10.8125 215.359 9.4375 215.047 8.34375C214.672 8.40625 214.266 8.4375 213.828 8.4375C213.422 8.4375 213 8.4375 212.562 8.4375C211.469 8.4375 210.406 8.46875 209.375 8.53125C208.375 8.5625 207.547 8.73438 206.891 9.04688C208.047 8.23438 209.172 7.48438 210.266 6.79688C211.359 6.10938 212.453 5.53125 213.547 5.0625C214.672 4.5625 215.797 4.17188 216.922 3.89062C218.078 3.60938 219.312 3.46875 220.625 3.46875C221.344 3.46875 222.141 3.5 223.016 3.5625C223.922 3.59375 224.906 3.6875 225.969 3.84375C225.125 4.375 224.328 4.85938 223.578 5.29688C222.828 5.70312 222.094 6.07812 221.375 6.42188C221.312 15.9844 221.031 25.3906 220.531 34.6406C220.062 43.8594 219.609 53.0781 219.172 62.2969C217.297 65.3594 215.938 67.875 215.094 69.8438C214.281 71.8125 213.812 73.0156 213.688 73.4531V73.6406C212.25 70.3906 210.484 67.3594 208.391 64.5469C206.297 61.7344 204 59.0469 201.5 56.4844C199.031 53.9219 196.453 51.4219 193.766 48.9844C191.078 46.5469 188.438 44.0625 185.844 41.5312C183.25 38.9688 180.781 36.3125 178.438 33.5625C176.125 30.7812 174.094 27.7812 172.344 24.5625C172.312 27.2812 172.266 30 172.203 32.7188C172.172 35.4375 172.125 38.0938 172.062 40.6875C172 43.2812 171.922 45.7656 171.828 48.1406C171.734 50.5156 171.625 52.6875 171.5 54.6562C171.406 56.625 171.297 58.3594 171.172 59.8594C171.047 61.3594 170.922 62.5312 170.797 63.375ZM163.766 72.6562C163.703 72.7188 163.609 72.75 163.484 72.75V72.6562H163.766Z" fill="white"/>
<path d="M114.453 67.125C112.797 68.0625 111.203 68.8438 109.672 69.4688C108.172 70.0938 106.766 70.5938 105.453 70.9688C104.141 71.3438 102.953 71.6094 101.891 71.7656C100.859 71.9219 99.9688 72 99.2188 72H92.1875L97.2969 69.1406C97.8281 68.4531 98.3438 67.7656 98.8438 67.0781C99.3438 66.3906 99.7656 65.75 100.109 65.1562C100.516 64.5 100.891 63.8438 101.234 63.1875C102.203 61.2188 103.641 58.0312 105.547 53.625C106.328 51.75 107.25 49.5156 108.312 46.9219C109.406 44.3281 110.656 41.3125 112.062 37.875C113.469 34.4375 115.031 30.5312 116.75 26.1562C118.469 21.7812 120.391 16.875 122.516 11.4375L130.672 3.9375L149.047 66.2344C150.359 66.5781 151.609 66.7969 152.797 66.8906C154.016 66.9844 155.156 67.0312 156.219 67.0312C156.781 67.0312 157.297 67.0312 157.766 67.0312C158.234 67 158.641 66.9688 158.984 66.9375C159.359 66.9062 159.719 66.8594 160.062 66.7969C158.25 67.6719 156.672 68.4375 155.328 69.0938C153.984 69.7188 152.781 70.25 151.719 70.6875C150.688 71.125 149.719 71.4531 148.812 71.6719C147.938 71.8906 147.047 72 146.141 72H138.641L141.078 70.4531L133.578 45.6094C132.672 45.8594 131.625 46.1094 130.438 46.3594C129.25 46.5781 127.828 46.7812 126.172 46.9688C124.547 47.1562 122.641 47.3281 120.453 47.4844C118.297 47.6406 115.797 47.7812 112.953 47.9062C111.641 50.6875 110.438 53.1562 109.344 55.3125C108.25 57.4688 107.266 59.3438 106.391 60.9375C105.516 62.5312 104.734 63.875 104.047 64.9688C103.391 66.0625 102.828 66.9375 102.359 67.5938C102.891 67.6875 103.484 67.7656 104.141 67.8281C104.797 67.8594 105.453 67.875 106.109 67.875C107.109 67.875 108.094 67.8438 109.062 67.7812C110.062 67.6875 110.969 67.5938 111.781 67.5C112.719 67.375 113.609 67.25 114.453 67.125ZM121.016 42.3281C125.234 42.3281 129.062 42.2344 132.5 42.0469L125.328 18.2344C123.391 23.2031 121.609 27.6406 119.984 31.5469C118.391 35.4531 116.875 39.0469 115.438 42.3281H121.016Z" fill="white"/>
<path d="M50.0938 2.20312C48.625 3.17188 47.2969 3.98438 46.1094 4.64062C44.9531 5.26562 43.8438 5.79688 42.7812 6.23438C42.7188 8.92188 42.6562 11.4219 42.5938 13.7344C42.5312 16.0156 42.4688 18.1719 42.4062 20.2031C42.375 22.2344 42.3438 24.1562 42.3125 25.9688C42.2812 27.7812 42.25 29.5312 42.2188 31.2188C43.875 30.875 45.5938 30.7031 47.375 30.7031C49.0938 30.7031 51.0781 30.7344 53.3281 30.7969C55.6094 30.8281 57.9688 30.8906 60.4062 30.9844C62.8438 31.0469 65.2969 31.1094 67.7656 31.1719C70.2344 31.2031 72.5312 31.2188 74.6562 31.2188H76.8594V7.875C75.8906 7.96875 74.7031 8.09375 73.2969 8.25C71.9219 8.375 70.3594 8.5625 68.6094 8.8125C70.2969 7.4375 71.8125 6.40625 73.1562 5.71875C74.5 5 75.6562 4.46875 76.625 4.125C77.75 3.75 78.75 3.53125 79.625 3.46875C80.75 3.46875 81.9688 3.4375 83.2812 3.375C84.5938 3.3125 85.875 3.23438 87.125 3.14062C88.375 3.01562 89.5 2.875 90.5 2.71875C91.5312 2.5625 92.2969 2.39062 92.7969 2.20312C91.3281 3.17188 90 3.98438 88.8125 4.64062C87.6562 5.26562 86.5469 5.79688 85.4844 6.23438C85.3281 11.9219 85.2031 17 85.1094 21.4688C85.0156 25.9375 84.9219 29.9062 84.8281 33.375C84.7656 36.8125 84.7031 39.7969 84.6406 42.3281C84.6094 44.8594 84.5781 47.0156 84.5469 48.7969C84.4531 52.9844 84.4219 55.8281 84.4531 57.3281C84.4219 58.4844 84.2656 59.625 83.9844 60.75C83.7344 61.7188 83.3594 62.7656 82.8594 63.8906C82.3594 64.9844 81.6406 65.9844 80.7031 66.8906C81.2656 66.9531 81.8125 67 82.3438 67.0312C82.875 67.0312 83.4062 67.0312 83.9375 67.0312C85.4062 67.0312 86.7188 66.9688 87.875 66.8438C89.0625 66.6875 90.0781 66.5312 90.9219 66.375C91.7969 66.2188 92.4844 66.0625 92.9844 65.9062C93.4844 65.75 93.7969 65.6406 93.9219 65.5781C92.2656 66.7031 90.8906 67.6719 89.7969 68.4844C88.7031 69.2969 87.7188 69.9688 86.8438 70.5C85.9688 71 85.1094 71.375 84.2656 71.625C83.4531 71.875 82.4844 72 81.3594 72C79.8594 72 78.5781 71.9375 77.5156 71.8125C76.4844 71.6875 75.4375 71.625 74.375 71.625C73.8438 71.625 73.2969 71.6562 72.7344 71.7188C72.2031 71.75 71.5938 71.8438 70.9062 72C71.9062 71.5312 72.7812 71.0469 73.5312 70.5469C74.2812 70.0156 74.8906 69.2969 75.3594 68.3906C75.8594 67.4531 76.2344 66.2344 76.4844 64.7344C76.7344 63.2031 76.8594 61.1719 76.8594 58.6406V34.2656C75.9531 34.4531 74.9375 34.6094 73.8125 34.7344C72.6875 34.8594 71.3906 34.9219 69.9219 34.9219C67.8906 34.9219 65.5156 34.8594 62.7969 34.7344C60.0781 34.6094 57.1094 34.5469 53.8906 34.5469C51.9844 34.5469 50.0469 34.5938 48.0781 34.6875C46.1406 34.7812 44.1562 34.9375 42.125 35.1562C42 39.75 41.9062 43.4844 41.8438 46.3594C41.8125 49.2344 41.7812 51.4844 41.75 53.1094C41.7188 55.0156 41.7031 56.4219 41.7031 57.3281C41.6719 58.4844 41.5156 59.625 41.2344 60.75C40.9844 61.7188 40.6094 62.7656 40.1094 63.8906C39.6094 64.9844 38.8906 65.9844 37.9531 66.8906C38.5469 66.9531 39.1094 67 39.6406 67.0312C40.1719 67.0312 40.7031 67.0312 41.2344 67.0312C42.7031 67.0312 44.0156 66.9688 45.1719 66.8438C46.3594 66.6875 47.375 66.5312 48.2188 66.375C49.0938 66.2188 49.7812 66.0625 50.2812 65.9062C50.7812 65.75 51.0938 65.6406 51.2188 65.5781C49.5625 66.7031 48.1875 67.6719 47.0938 68.4844C46 69.2969 45.0156 69.9688 44.1406 70.5C43.2656 71 42.4062 71.375 41.5625 71.625C40.75 71.875 39.7812 72 38.6562 72C37.1562 72 35.875 71.9375 34.8125 71.8125C33.75 71.6875 32.6875 71.625 31.625 71.625C31.0938 71.625 30.5469 71.6562 29.9844 71.7188C29.4531 71.75 28.8594 71.8438 28.2031 72C29.0781 71.25 29.875 70.4375 30.5938 69.5625C31.3125 68.6562 31.9219 67.5625 32.4219 66.2812C32.9531 65 33.3594 63.4688 33.6406 61.6875C33.9219 59.9062 34.0625 57.75 34.0625 55.2188V36.5625C33.3438 36.7188 32.6406 36.8906 31.9531 37.0781C31.2656 37.2656 30.5781 37.4844 29.8906 37.7344C30.5781 37.1094 31.2656 36.5312 31.9531 36C32.6406 35.4688 33.3438 34.9531 34.0625 34.4531V7.875C33.0938 7.96875 31.9219 8.09375 30.5469 8.25C29.1719 8.375 27.6094 8.5625 25.8594 8.8125C27.5469 7.4375 29.0625 6.40625 30.4062 5.71875C31.7812 5 32.9531 4.46875 33.9219 4.125C35.0469 3.75 36.0469 3.53125 36.9219 3.46875C38.0156 3.46875 39.2188 3.4375 40.5312 3.375C41.875 3.3125 43.1562 3.23438 44.375 3.14062C45.625 3.01562 46.7656 2.875 47.7969 2.71875C48.8281 2.5625 49.5938 2.39062 50.0938 2.20312ZM51.2188 65.5781V65.5312C51.25 65.5 51.2812 65.4844 51.3125 65.4844L51.2188 65.5781ZM93.9219 65.5781V65.5312H93.9688C94 65.5 94.0312 65.4844 94.0625 65.4844L93.9219 65.5781Z" fill="white"/>
<path d="M509.078 202.625C509.078 206.594 508.422 210.266 507.109 213.641C505.797 217.016 504.062 220.094 501.906 222.875C499.75 225.656 497.281 228.125 494.5 230.281C491.75 232.406 488.922 234.203 486.016 235.672C483.141 237.109 480.312 238.203 477.531 238.953C474.75 239.703 472.25 240.078 470.031 240.078C468.156 240.078 466.172 239.781 464.078 239.188C461.984 238.625 459.906 237.781 457.844 236.656C455.812 235.5 453.859 234.078 451.984 232.391C450.109 230.672 448.453 228.703 447.016 226.484C445.609 224.234 444.484 221.734 443.641 218.984C442.797 216.203 442.375 213.172 442.375 209.891C442.375 205.516 442.984 201.516 444.203 197.891C445.422 194.266 447.031 191.016 449.031 188.141C451.062 185.234 453.359 182.703 455.922 180.547C458.516 178.391 461.156 176.609 463.844 175.203C466.562 173.766 469.234 172.703 471.859 172.016C474.484 171.297 476.844 170.938 478.938 170.938C481.156 170.938 483.438 171.172 485.781 171.641C488.125 172.109 490.406 172.859 492.625 173.891C494.875 174.922 496.984 176.266 498.953 177.922C500.953 179.547 502.703 181.531 504.203 183.875C505.703 186.219 506.891 188.953 507.766 192.078C508.641 195.172 509.078 198.688 509.078 202.625ZM500.547 205.484C500.547 202.047 500.125 198.938 499.281 196.156C498.438 193.344 497.297 190.859 495.859 188.703C494.453 186.516 492.812 184.641 490.938 183.078C489.094 181.484 487.156 180.172 485.125 179.141C483.125 178.109 481.094 177.359 479.031 176.891C476.969 176.391 475.016 176.141 473.172 176.141C470.234 176.141 467.391 176.703 464.641 177.828C461.891 178.922 459.438 180.656 457.281 183.031C455.156 185.375 453.453 188.406 452.172 192.125C450.891 195.844 450.25 200.297 450.25 205.484C450.25 208.953 450.75 212.078 451.75 214.859C452.75 217.609 454.062 220.031 455.688 222.125C457.312 224.219 459.141 226.016 461.172 227.516C463.234 229.016 465.312 230.234 467.406 231.172C469.531 232.109 471.578 232.797 473.547 233.234C475.547 233.672 477.281 233.891 478.75 233.891C480.219 233.891 481.766 233.672 483.391 233.234C485.047 232.797 486.688 232.109 488.312 231.172C489.938 230.203 491.484 228.969 492.953 227.469C494.422 225.969 495.719 224.172 496.844 222.078C497.969 219.984 498.859 217.562 499.516 214.812C500.203 212.062 500.547 208.953 500.547 205.484Z" fill="white"/>
<path d="M437.5 232.953C435.812 234.078 434.422 235.047 433.328 235.859C432.234 236.672 431.234 237.344 430.328 237.875C429.453 238.375 428.594 238.75 427.75 239C426.938 239.25 425.969 239.375 424.844 239.375C423.344 239.375 422.062 239.312 421 239.188C419.938 239.062 418.875 239 417.812 239C417.281 239 416.734 239.016 416.172 239.047C415.641 239.109 415.047 239.219 414.391 239.375C415.266 238.625 416.062 237.812 416.781 236.938C417.5 236.062 418.109 234.984 418.609 233.703C419.141 232.422 419.547 230.891 419.828 229.109C420.109 227.297 420.25 225.125 420.25 222.594V175.25C419.281 175.344 418.109 175.469 416.734 175.625C415.359 175.781 413.797 175.984 412.047 176.234C413.734 174.859 415.25 173.812 416.594 173.094C417.969 172.375 419.141 171.844 420.109 171.5C421.234 171.125 422.234 170.906 423.109 170.844C424.203 170.875 425.406 170.859 426.719 170.797C428.062 170.734 429.344 170.656 430.562 170.562C431.812 170.438 432.953 170.297 433.984 170.141C435.016 169.953 435.781 169.766 436.281 169.578C434.812 170.547 433.484 171.375 432.297 172.062C431.141 172.719 430.031 173.266 428.969 173.703C428.812 179.359 428.672 184.422 428.547 188.891C428.453 193.359 428.359 197.328 428.266 200.797C428.203 204.234 428.141 207.219 428.078 209.75C428.047 212.25 428.016 214.391 427.984 216.172C427.891 220.328 427.859 223.172 427.891 224.703C427.859 225.859 427.703 227 427.422 228.125C427.172 229.125 426.797 230.188 426.297 231.312C425.797 232.406 425.078 233.406 424.141 234.312C424.734 234.375 425.312 234.406 425.875 234.406C426.438 234.406 426.984 234.406 427.516 234.406C429.109 234.406 430.516 234.344 431.734 234.219C432.984 234.062 434.031 233.891 434.875 233.703C435.875 233.484 436.75 233.234 437.5 232.953Z" fill="white"/>
<path d="M390.531 169.578C389.062 170.547 387.734 171.375 386.547 172.062C385.391 172.719 384.281 173.266 383.219 173.703C383.062 179.359 382.922 184.422 382.797 188.891C382.703 193.359 382.609 197.328 382.516 200.797C382.453 204.234 382.391 207.219 382.328 209.75C382.297 212.25 382.266 214.391 382.234 216.172C382.141 220.328 382.109 223.172 382.141 224.703C382.109 225.859 381.984 226.969 381.766 228.031C381.578 228.938 381.281 229.906 380.875 230.938C380.469 231.938 379.906 232.797 379.188 233.516C381.062 233.578 382.812 233.609 384.438 233.609C386.094 233.609 387.672 233.609 389.172 233.609C393.453 233.609 396.984 233.547 399.766 233.422C402.547 233.297 404.766 233.156 406.422 233C408.078 232.812 409.25 232.656 409.938 232.531C410.625 232.375 411.031 232.266 411.156 232.203C409.5 233.328 408.125 234.297 407.031 235.109C405.938 235.922 404.953 236.594 404.078 237.125C403.234 237.625 402.391 238 401.547 238.25C400.734 238.5 399.781 238.625 398.688 238.625H391.469C389.438 238.625 387.234 238.641 384.859 238.672C382.484 238.672 380.219 238.703 378.062 238.766C375.906 238.797 373.969 238.875 372.25 239C370.562 239.094 369.359 239.219 368.641 239.375C369.516 238.625 370.312 237.812 371.031 236.938C371.75 236.062 372.359 234.984 372.859 233.703C373.391 232.422 373.797 230.891 374.078 229.109C374.359 227.297 374.5 225.125 374.5 222.594V175.25C373.531 175.344 372.359 175.469 370.984 175.625C369.609 175.781 368.047 175.984 366.297 176.234C367.984 174.859 369.5 173.812 370.844 173.094C372.219 172.375 373.391 171.844 374.359 171.5C375.484 171.125 376.484 170.906 377.359 170.844C378.453 170.875 379.656 170.859 380.969 170.797C382.312 170.734 383.594 170.656 384.812 170.562C386.062 170.438 387.203 170.297 388.234 170.141C389.266 169.953 390.031 169.766 390.531 169.578ZM411.156 232.203V232.156C411.188 232.125 411.219 232.109 411.25 232.109L411.156 232.203Z" fill="white"/>
<path d="M359.734 202.625C359.734 206.594 359.078 210.266 357.766 213.641C356.453 217.016 354.719 220.094 352.562 222.875C350.406 225.656 347.938 228.125 345.156 230.281C342.406 232.406 339.578 234.203 336.672 235.672C333.797 237.109 330.969 238.203 328.188 238.953C325.406 239.703 322.906 240.078 320.688 240.078C318.812 240.078 316.828 239.781 314.734 239.188C312.641 238.625 310.562 237.781 308.5 236.656C306.469 235.5 304.516 234.078 302.641 232.391C300.766 230.672 299.109 228.703 297.672 226.484C296.266 224.234 295.141 221.734 294.297 218.984C293.453 216.203 293.031 213.172 293.031 209.891C293.031 205.516 293.641 201.516 294.859 197.891C296.078 194.266 297.688 191.016 299.688 188.141C301.719 185.234 304.016 182.703 306.578 180.547C309.172 178.391 311.812 176.609 314.5 175.203C317.219 173.766 319.891 172.703 322.516 172.016C325.141 171.297 327.5 170.938 329.594 170.938C331.812 170.938 334.094 171.172 336.438 171.641C338.781 172.109 341.062 172.859 343.281 173.891C345.531 174.922 347.641 176.266 349.609 177.922C351.609 179.547 353.359 181.531 354.859 183.875C356.359 186.219 357.547 188.953 358.422 192.078C359.297 195.172 359.734 198.688 359.734 202.625ZM351.203 205.484C351.203 202.047 350.781 198.938 349.938 196.156C349.094 193.344 347.953 190.859 346.516 188.703C345.109 186.516 343.469 184.641 341.594 183.078C339.75 181.484 337.812 180.172 335.781 179.141C333.781 178.109 331.75 177.359 329.688 176.891C327.625 176.391 325.672 176.141 323.828 176.141C320.891 176.141 318.047 176.703 315.297 177.828C312.547 178.922 310.094 180.656 307.938 183.031C305.812 185.375 304.109 188.406 302.828 192.125C301.547 195.844 300.906 200.297 300.906 205.484C300.906 208.953 301.406 212.078 302.406 214.859C303.406 217.609 304.719 220.031 306.344 222.125C307.969 224.219 309.797 226.016 311.828 227.516C313.891 229.016 315.969 230.234 318.062 231.172C320.188 232.109 322.234 232.797 324.203 233.234C326.203 233.672 327.938 233.891 329.406 233.891C330.875 233.891 332.422 233.672 334.047 233.234C335.703 232.797 337.344 232.109 338.969 231.172C340.594 230.203 342.141 228.969 343.609 227.469C345.078 225.969 346.375 224.172 347.5 222.078C348.625 219.984 349.516 217.562 350.172 214.812C350.859 212.062 351.203 208.953 351.203 205.484Z" fill="white"/>
<path d="M282.625 203.75C282.375 203.906 281.969 204.156 281.406 204.5C280.906 204.844 280.203 205.312 279.297 205.906C278.391 206.5 277.188 207.328 275.688 208.391C275.938 207.922 275.922 207.562 275.641 207.312C275.391 207.062 275.047 206.891 274.609 206.797C274.078 206.672 273.453 206.625 272.734 206.656C271.641 206.75 270.188 206.859 268.375 206.984C266.562 207.109 264.531 207.219 262.281 207.312C262.25 211.938 262.203 215.719 262.141 218.656C262.109 221.562 262.078 223.844 262.047 225.5C261.984 227.438 261.922 228.891 261.859 229.859C261.797 230.484 261.609 231.094 261.297 231.688C261.047 232.219 260.641 232.781 260.078 233.375C259.547 233.969 258.797 234.5 257.828 234.969C259.734 234.969 261.625 234.906 263.5 234.781C265.094 234.688 266.781 234.531 268.562 234.312C270.375 234.094 272.016 233.766 273.484 233.328C272.016 234.641 270.516 235.688 268.984 236.469C267.484 237.25 265.969 237.859 264.438 238.297C262.938 238.734 261.453 239.047 259.984 239.234C258.547 239.422 257.188 239.547 255.906 239.609C254.656 239.672 253.484 239.734 252.391 239.797C251.328 239.859 250.422 239.984 249.672 240.172C250.641 239.203 251.391 238.25 251.922 237.312C252.484 236.375 252.906 235.328 253.188 234.172C253.469 233.016 253.641 231.719 253.703 230.281C253.797 228.812 253.828 227.078 253.797 225.078V207.406C252.953 207.406 252.094 207.391 251.219 207.359C250.375 207.328 249.516 207.281 248.641 207.219L253.797 204.547C253.797 202.828 253.781 201 253.75 199.062C253.75 197.094 253.75 194.984 253.75 192.734C253.75 190.453 253.734 188 253.703 185.375C253.703 182.75 253.703 179.891 253.703 176.797C252.297 176.797 250.969 176.781 249.719 176.75C248.469 176.719 247.312 176.672 246.25 176.609L254.969 171.969C260.906 171.969 265.969 171.938 270.156 171.875C274.375 171.781 277.859 171.688 280.609 171.594C283.797 171.469 286.453 171.344 288.578 171.219C289.641 171.219 290.344 171.312 290.688 171.5C291.031 171.656 291.172 171.844 291.109 172.062C291.047 172.25 290.859 172.453 290.547 172.672C290.234 172.891 289.953 173.047 289.703 173.141C289.453 173.266 288.984 173.531 288.297 173.938C287.703 174.281 286.859 174.828 285.766 175.578C284.703 176.297 283.234 177.281 281.359 178.531C281.984 177.844 282.25 177.344 282.156 177.031C282.062 176.688 281.844 176.438 281.5 176.281C281.094 176.125 280.531 176.047 279.812 176.047C279.219 176.109 278.328 176.172 277.141 176.234C275.953 176.266 274.562 176.312 272.969 176.375C271.406 176.438 269.703 176.5 267.859 176.562C266.016 176.625 264.125 176.672 262.188 176.703C262.25 182.109 262.281 186.922 262.281 191.141C262.281 195.359 262.281 199.219 262.281 202.719C265.125 202.688 267.719 202.641 270.062 202.578C272.406 202.484 274.422 202.391 276.109 202.297C278.078 202.172 279.859 202.047 281.453 201.922C282.516 201.891 283.219 201.953 283.562 202.109C283.906 202.234 284.047 202.406 283.984 202.625C283.922 202.844 283.734 203.062 283.422 203.281C283.109 203.5 282.844 203.656 282.625 203.75Z" fill="white"/>
<path d="M243.906 173.516C243.562 173.703 243.031 174 242.312 174.406C241.687 174.75 240.828 175.25 239.734 175.906C238.672 176.531 237.281 177.344 235.562 178.344C236.094 177.656 236.328 177.172 236.266 176.891C236.234 176.578 236.094 176.375 235.844 176.281C235.531 176.156 235.109 176.141 234.578 176.234C234.266 176.297 233.594 176.375 232.562 176.469C231.531 176.531 230.234 176.594 228.672 176.656C227.141 176.719 225.391 176.781 223.422 176.844C221.453 176.906 219.375 176.953 217.187 176.984C217.062 182.203 216.953 186.875 216.859 191C216.766 195.125 216.672 198.781 216.578 201.969C216.516 205.156 216.453 207.922 216.391 210.266C216.359 212.609 216.328 214.609 216.297 216.266C216.203 220.141 216.156 222.828 216.156 224.328C216.125 225.484 215.969 226.625 215.687 227.75C215.437 228.719 215.062 229.766 214.562 230.891C214.062 231.984 213.344 232.984 212.406 233.891C213 233.953 213.562 234 214.094 234.031C214.625 234.031 215.156 234.031 215.687 234.031C217.156 234.031 218.469 233.969 219.625 233.844C220.812 233.688 221.828 233.531 222.672 233.375C223.516 233.219 224.187 233.062 224.687 232.906C225.219 232.75 225.547 232.641 225.672 232.578C224.016 233.703 222.641 234.672 221.547 235.484C220.453 236.297 219.469 236.969 218.594 237.5C217.719 238 216.859 238.375 216.016 238.625C215.172 238.875 214.187 239 213.062 239C211.562 239 210.281 238.938 209.219 238.812C208.187 238.688 207.141 238.625 206.078 238.625C205.547 238.625 205 238.656 204.437 238.719C203.906 238.75 203.297 238.844 202.609 239C203.484 238.25 204.281 237.438 205 236.562C205.75 235.656 206.375 234.562 206.875 233.281C207.375 232 207.766 230.469 208.047 228.688C208.328 226.906 208.469 224.75 208.469 222.219V177.266C205.75 177.328 203.078 177.391 200.453 177.453C197.859 177.516 195.516 177.578 193.422 177.641C191.328 177.672 189.562 177.719 188.125 177.781C186.719 177.844 185.828 177.891 185.453 177.922C184.578 178.016 183.953 177.984 183.578 177.828C183.203 177.672 183.031 177.438 183.062 177.125C183.094 176.781 183.328 176.375 183.766 175.906C184.172 175.438 184.734 174.938 185.453 174.406L191.875 169.766C191.406 170.328 191.25 170.75 191.406 171.031C191.594 171.312 191.875 171.531 192.25 171.688C192.687 171.844 193.266 171.938 193.984 171.969C194.484 171.969 195.5 171.953 197.031 171.922C198.562 171.891 200.422 171.859 202.609 171.828C204.828 171.766 207.281 171.719 209.969 171.688C212.656 171.625 215.391 171.562 218.172 171.5C220.953 171.406 223.687 171.328 226.375 171.266C229.062 171.203 231.5 171.156 233.687 171.125C235.906 171.062 237.781 171.016 239.312 170.984C240.844 170.922 241.859 170.875 242.359 170.844C243.328 170.812 244.031 170.891 244.469 171.078C244.906 171.266 245.141 171.516 245.172 171.828C245.234 172.141 245.125 172.453 244.844 172.766C244.594 173.078 244.281 173.328 243.906 173.516ZM225.672 232.578V232.531C225.703 232.5 225.734 232.484 225.766 232.484L225.672 232.578Z" fill="white"/>
<path d="M174.203 188.703C173.953 191.047 173.328 193.109 172.328 194.891C171.328 196.641 170.125 198.188 168.719 199.531C167.312 200.875 165.797 202.016 164.172 202.953C162.578 203.859 161.062 204.641 159.625 205.297C162.375 208.266 164.844 210.906 167.031 213.219C169.25 215.531 171.219 217.578 172.938 219.359C174.656 221.141 176.141 222.688 177.391 224C178.672 225.281 179.766 226.359 180.672 227.234C182.797 229.328 184.281 230.719 185.125 231.406C186 232.094 186.953 232.578 187.984 232.859C189.016 233.109 190.016 233.234 190.984 233.234C191.797 233.234 192.578 233.156 193.328 233C194.078 232.844 194.672 232.672 195.109 232.484C193.609 233.484 192.281 234.391 191.125 235.203C190 236.016 188.953 236.719 187.984 237.312C187.047 237.875 186.141 238.312 185.266 238.625C184.422 238.938 183.547 239.094 182.641 239.094C182.016 239.094 181.391 239 180.766 238.812C180.172 238.625 179.531 238.328 178.844 237.922C178.188 237.516 177.469 237 176.688 236.375C175.938 235.75 175.109 235 174.203 234.125C173.609 233.531 172.719 232.578 171.531 231.266C170.344 229.922 169.016 228.438 167.547 226.812C166.078 225.156 164.547 223.438 162.953 221.656C161.359 219.875 159.859 218.234 158.453 216.734C157.047 215.203 155.797 213.891 154.703 212.797C153.641 211.703 152.906 211.031 152.5 210.781C152.031 210.5 151.531 210.25 151 210.031C150.562 209.844 150.047 209.688 149.453 209.562C148.891 209.406 148.344 209.359 147.812 209.422L154.609 204.734C156.172 204.734 157.656 204.375 159.062 203.656C160.5 202.938 161.734 201.891 162.766 200.516C163.828 199.109 164.656 197.406 165.25 195.406C165.844 193.406 166.078 191.141 165.953 188.609C165.891 187.109 165.547 185.75 164.922 184.531C164.328 183.281 163.547 182.172 162.578 181.203C161.641 180.234 160.562 179.391 159.344 178.672C158.125 177.953 156.875 177.359 155.594 176.891C154.312 176.391 153.031 176.031 151.75 175.812C150.5 175.562 149.344 175.438 148.281 175.438C147.562 175.438 146.781 175.453 145.938 175.484C145.094 175.516 144.25 175.531 143.406 175.531C143.312 181.375 143.203 186.594 143.078 191.188C142.984 195.781 142.891 199.859 142.797 203.422C142.703 206.984 142.609 210.062 142.516 212.656C142.453 215.219 142.375 217.406 142.281 219.219C142.094 223.469 141.922 226.344 141.766 227.844C141.672 228.469 141.516 229.109 141.297 229.766C141.109 230.328 140.844 230.938 140.5 231.594C140.188 232.25 139.781 232.891 139.281 233.516C140.625 233.672 141.828 233.766 142.891 233.797C143.984 233.797 144.984 233.797 145.891 233.797C148.047 233.797 149.625 233.734 150.625 233.609C151.656 233.484 152.25 233.391 152.406 233.328C150.781 234.141 149.25 234.891 147.812 235.578C146.375 236.266 145 236.875 143.688 237.406C142.375 237.938 141.109 238.359 139.891 238.672C138.703 238.953 137.531 239.094 136.375 239.094H128.219L132.344 236.328C132.562 235.516 132.766 234.547 132.953 233.422C133.172 232.297 133.359 231.094 133.516 229.812C133.672 228.5 133.797 227.156 133.891 225.781C134.016 224.375 134.125 223 134.219 221.656C134.406 218.562 134.547 215.281 134.641 211.812C134.703 207.031 134.766 202.406 134.828 197.938C134.859 196.031 134.891 194.078 134.922 192.078C134.953 190.047 134.969 188.078 134.969 186.172C135 184.234 135.031 182.406 135.062 180.688C135.094 178.938 135.109 177.391 135.109 176.047L126.672 176.703L135.812 171.219C136.344 171.312 136.922 171.375 137.547 171.406C138.203 171.406 138.875 171.406 139.562 171.406C140.906 171.406 142.234 171.359 143.547 171.266C144.859 171.141 146.156 171.016 147.438 170.891C148.75 170.734 150.031 170.594 151.281 170.469C152.531 170.344 153.797 170.281 155.078 170.281C157.578 170.281 160.031 170.703 162.438 171.547C164.844 172.391 166.953 173.609 168.766 175.203C170.609 176.797 172.047 178.734 173.078 181.016C174.109 183.297 174.484 185.859 174.203 188.703ZM195.25 232.391C195.188 232.422 195.156 232.438 195.156 232.438H195.109V232.484V232.438H195.156C195.188 232.406 195.219 232.391 195.25 232.391Z" fill="white"/>
<path d="M121.047 202.625C121.047 206.594 120.391 210.266 119.078 213.641C117.766 217.016 116.031 220.094 113.875 222.875C111.719 225.656 109.25 228.125 106.469 230.281C103.719 232.406 100.891 234.203 97.9844 235.672C95.1094 237.109 92.2812 238.203 89.5 238.953C86.7188 239.703 84.2188 240.078 82 240.078C80.125 240.078 78.1406 239.781 76.0469 239.188C73.9531 238.625 71.875 237.781 69.8125 236.656C67.7812 235.5 65.8281 234.078 63.9531 232.391C62.0781 230.672 60.4219 228.703 58.9844 226.484C57.5781 224.234 56.4531 221.734 55.6094 218.984C54.7656 216.203 54.3438 213.172 54.3438 209.891C54.3438 205.516 54.9531 201.516 56.1719 197.891C57.3906 194.266 59 191.016 61 188.141C63.0312 185.234 65.3281 182.703 67.8906 180.547C70.4844 178.391 73.125 176.609 75.8125 175.203C78.5312 173.766 81.2031 172.703 83.8281 172.016C86.4531 171.297 88.8125 170.938 90.9062 170.938C93.125 170.938 95.4062 171.172 97.75 171.641C100.094 172.109 102.375 172.859 104.594 173.891C106.844 174.922 108.953 176.266 110.922 177.922C112.922 179.547 114.672 181.531 116.172 183.875C117.672 186.219 118.859 188.953 119.734 192.078C120.609 195.172 121.047 198.688 121.047 202.625ZM112.516 205.484C112.516 202.047 112.094 198.938 111.25 196.156C110.406 193.344 109.266 190.859 107.828 188.703C106.422 186.516 104.781 184.641 102.906 183.078C101.062 181.484 99.125 180.172 97.0938 179.141C95.0938 178.109 93.0625 177.359 91 176.891C88.9375 176.391 86.9844 176.141 85.1406 176.141C82.2031 176.141 79.3594 176.703 76.6094 177.828C73.8594 178.922 71.4062 180.656 69.25 183.031C67.125 185.375 65.4219 188.406 64.1406 192.125C62.8594 195.844 62.2188 200.297 62.2188 205.484C62.2188 208.953 62.7188 212.078 63.7188 214.859C64.7188 217.609 66.0312 220.031 67.6562 222.125C69.2812 224.219 71.1094 226.016 73.1406 227.516C75.2031 229.016 77.2812 230.234 79.375 231.172C81.5 232.109 83.5469 232.797 85.5156 233.234C87.5156 233.672 89.25 233.891 90.7188 233.891C92.1875 233.891 93.7344 233.672 95.3594 233.234C97.0156 232.797 98.6562 232.109 100.281 231.172C101.906 230.203 103.453 228.969 104.922 227.469C106.391 225.969 107.688 224.172 108.812 222.078C109.938 219.984 110.828 217.562 111.484 214.812C112.172 212.062 112.516 208.953 112.516 205.484Z" fill="white"/>
<path d="M49.6562 188.703C49.4375 190.797 48.9531 192.734 48.2031 194.516C47.4844 196.266 46.5938 197.875 45.5312 199.344C44.4688 200.781 43.3125 202.078 42.0625 203.234C40.8438 204.359 39.625 205.359 38.4062 206.234C37.2188 207.078 36.0938 207.797 35.0312 208.391C33.9688 208.953 33.1094 209.391 32.4531 209.703C31.5469 210.109 30.5625 210.469 29.5 210.781C28.5938 211.031 27.5312 211.266 26.3125 211.484C25.125 211.703 23.8438 211.781 22.4688 211.719L27.2969 209.422C29.0781 209.547 30.8594 209.094 32.6406 208.062C34.4219 207 36 205.531 37.375 203.656C38.75 201.75 39.8281 199.516 40.6094 196.953C41.4219 194.359 41.7188 191.578 41.5 188.609C41.3125 186.359 40.6875 184.375 39.625 182.656C38.5938 180.906 37.3438 179.438 35.875 178.25C34.4062 177.062 32.8125 176.156 31.0938 175.531C29.375 174.906 27.7188 174.594 26.125 174.594C25.0312 174.594 23.7188 174.641 22.1875 174.734C20.6562 174.797 19.0312 174.906 17.3125 175.062C17.2188 180.969 17.1094 186.25 16.9844 190.906C16.8906 195.531 16.7969 199.641 16.7031 203.234C16.6094 206.797 16.5156 209.891 16.4219 212.516C16.3594 215.109 16.2812 217.312 16.1875 219.125C16 223.406 15.8281 226.312 15.6719 227.844C15.5781 228.469 15.4219 229.109 15.2031 229.766C15.0156 230.328 14.75 230.938 14.4062 231.594C14.0938 232.25 13.6875 232.891 13.1875 233.516C14.5312 233.672 15.7344 233.766 16.7969 233.797C17.8906 233.797 18.8906 233.797 19.7969 233.797C21.9531 233.797 23.5312 233.734 24.5312 233.609C25.5625 233.484 26.1562 233.391 26.3125 233.328C24.6875 234.141 23.1562 234.891 21.7188 235.578C20.2812 236.266 18.9062 236.875 17.5938 237.406C16.2812 237.938 15.0156 238.359 13.7969 238.672C12.6094 238.953 11.4375 239.094 10.2812 239.094H2.125L6.25 236.328C6.46875 235.516 6.67188 234.547 6.85938 233.422C7.07812 232.297 7.26562 231.094 7.42188 229.812C7.57812 228.5 7.70312 227.156 7.79688 225.781C7.92188 224.375 8.03125 223 8.125 221.656C8.3125 218.562 8.45312 215.281 8.54688 211.812C8.60938 207 8.67188 202.344 8.73438 197.844C8.76562 195.938 8.79688 193.969 8.82812 191.938C8.85938 189.906 8.875 187.922 8.875 185.984C8.90625 184.016 8.9375 182.172 8.96875 180.453C9 178.703 9.03125 177.156 9.0625 175.812L0.578125 176.703L9.71875 171.219C10.5938 171.312 11.4531 171.375 12.2969 171.406C13.1719 171.406 14.0625 171.406 14.9688 171.406C16.5 171.406 17.9844 171.359 19.4219 171.266C20.8594 171.141 22.2812 171.016 23.6875 170.891C25.0938 170.734 26.4844 170.594 27.8594 170.469C29.2344 170.344 30.6094 170.281 31.9844 170.281C34.4531 170.281 36.8125 170.703 39.0625 171.547C41.3125 172.391 43.2656 173.609 44.9219 175.203C46.6094 176.797 47.8906 178.734 48.7656 181.016C49.6406 183.297 49.9375 185.859 49.6562 188.703Z" fill="white"/>
<path d="M524.875 340.516C524.531 340.703 524 341 523.281 341.406C522.656 341.75 521.797 342.25 520.703 342.906C519.641 343.531 518.25 344.344 516.531 345.344C517.062 344.656 517.297 344.172 517.234 343.891C517.203 343.578 517.062 343.375 516.812 343.281C516.5 343.156 516.078 343.141 515.547 343.234C515.234 343.297 514.562 343.375 513.531 343.469C512.5 343.531 511.203 343.594 509.641 343.656C508.109 343.719 506.359 343.781 504.391 343.844C502.422 343.906 500.344 343.953 498.156 343.984C498.031 349.203 497.922 353.875 497.828 358C497.734 362.125 497.641 365.781 497.547 368.969C497.484 372.156 497.422 374.922 497.359 377.266C497.328 379.609 497.297 381.609 497.266 383.266C497.172 387.141 497.125 389.828 497.125 391.328C497.094 392.484 496.937 393.625 496.656 394.75C496.406 395.719 496.031 396.766 495.531 397.891C495.031 398.984 494.312 399.984 493.375 400.891C493.969 400.953 494.531 401 495.062 401.031C495.594 401.031 496.125 401.031 496.656 401.031C498.125 401.031 499.437 400.969 500.594 400.844C501.781 400.688 502.797 400.531 503.641 400.375C504.484 400.219 505.156 400.062 505.656 399.906C506.187 399.75 506.516 399.641 506.641 399.578C504.984 400.703 503.609 401.672 502.516 402.484C501.422 403.297 500.437 403.969 499.562 404.5C498.687 405 497.828 405.375 496.984 405.625C496.141 405.875 495.156 406 494.031 406C492.531 406 491.25 405.938 490.187 405.812C489.156 405.688 488.109 405.625 487.047 405.625C486.516 405.625 485.969 405.656 485.406 405.719C484.875 405.75 484.266 405.844 483.578 406C484.453 405.25 485.25 404.438 485.969 403.562C486.719 402.656 487.344 401.562 487.844 400.281C488.344 399 488.734 397.469 489.016 395.688C489.297 393.906 489.437 391.75 489.437 389.219V344.266C486.719 344.328 484.047 344.391 481.422 344.453C478.828 344.516 476.484 344.578 474.391 344.641C472.297 344.672 470.531 344.719 469.094 344.781C467.687 344.844 466.797 344.891 466.422 344.922C465.547 345.016 464.922 344.984 464.547 344.828C464.172 344.672 464 344.438 464.031 344.125C464.062 343.781 464.297 343.375 464.734 342.906C465.141 342.438 465.703 341.938 466.422 341.406L472.844 336.766C472.375 337.328 472.219 337.75 472.375 338.031C472.562 338.312 472.844 338.531 473.219 338.688C473.656 338.844 474.234 338.938 474.953 338.969C475.453 338.969 476.469 338.953 478 338.922C479.531 338.891 481.391 338.859 483.578 338.828C485.797 338.766 488.25 338.719 490.937 338.688C493.625 338.625 496.359 338.562 499.141 338.5C501.922 338.406 504.656 338.328 507.344 338.266C510.031 338.203 512.469 338.156 514.656 338.125C516.875 338.062 518.75 338.016 520.281 337.984C521.812 337.922 522.828 337.875 523.328 337.844C524.297 337.812 525 337.891 525.437 338.078C525.875 338.266 526.109 338.516 526.141 338.828C526.203 339.141 526.094 339.453 525.812 339.766C525.562 340.078 525.25 340.328 524.875 340.516ZM506.641 399.578V399.531C506.672 399.5 506.703 399.484 506.734 399.484L506.641 399.578Z" fill="white"/>
<path d="M455.172 355.703C454.922 358.047 454.297 360.109 453.297 361.891C452.297 363.641 451.094 365.188 449.688 366.531C448.281 367.875 446.766 369.016 445.141 369.953C443.547 370.859 442.031 371.641 440.594 372.297C443.344 375.266 445.812 377.906 448 380.219C450.219 382.531 452.188 384.578 453.906 386.359C455.625 388.141 457.109 389.688 458.359 391C459.641 392.281 460.734 393.359 461.641 394.234C463.766 396.328 465.25 397.719 466.094 398.406C466.969 399.094 467.922 399.578 468.953 399.859C469.984 400.109 470.984 400.234 471.953 400.234C472.766 400.234 473.547 400.156 474.297 400C475.047 399.844 475.641 399.672 476.078 399.484C474.578 400.484 473.25 401.391 472.094 402.203C470.969 403.016 469.922 403.719 468.953 404.312C468.016 404.875 467.109 405.312 466.234 405.625C465.391 405.938 464.516 406.094 463.609 406.094C462.984 406.094 462.359 406 461.734 405.812C461.141 405.625 460.5 405.328 459.812 404.922C459.156 404.516 458.438 404 457.656 403.375C456.906 402.75 456.078 402 455.172 401.125C454.578 400.531 453.688 399.578 452.5 398.266C451.312 396.922 449.984 395.438 448.516 393.812C447.047 392.156 445.516 390.438 443.922 388.656C442.328 386.875 440.828 385.234 439.422 383.734C438.016 382.203 436.766 380.891 435.672 379.797C434.609 378.703 433.875 378.031 433.469 377.781C433 377.5 432.5 377.25 431.969 377.031C431.531 376.844 431.016 376.688 430.422 376.562C429.859 376.406 429.312 376.359 428.781 376.422L435.578 371.734C437.141 371.734 438.625 371.375 440.031 370.656C441.469 369.938 442.703 368.891 443.734 367.516C444.797 366.109 445.625 364.406 446.219 362.406C446.812 360.406 447.047 358.141 446.922 355.609C446.859 354.109 446.516 352.75 445.891 351.531C445.297 350.281 444.516 349.172 443.547 348.203C442.609 347.234 441.531 346.391 440.312 345.672C439.094 344.953 437.844 344.359 436.562 343.891C435.281 343.391 434 343.031 432.719 342.812C431.469 342.562 430.312 342.438 429.25 342.438C428.531 342.438 427.75 342.453 426.906 342.484C426.062 342.516 425.219 342.531 424.375 342.531C424.281 348.375 424.172 353.594 424.047 358.188C423.953 362.781 423.859 366.859 423.766 370.422C423.672 373.984 423.578 377.062 423.484 379.656C423.422 382.219 423.344 384.406 423.25 386.219C423.062 390.469 422.891 393.344 422.734 394.844C422.641 395.469 422.484 396.109 422.266 396.766C422.078 397.328 421.812 397.938 421.469 398.594C421.156 399.25 420.75 399.891 420.25 400.516C421.594 400.672 422.797 400.766 423.859 400.797C424.953 400.797 425.953 400.797 426.859 400.797C429.016 400.797 430.594 400.734 431.594 400.609C432.625 400.484 433.219 400.391 433.375 400.328C431.75 401.141 430.219 401.891 428.781 402.578C427.344 403.266 425.969 403.875 424.656 404.406C423.344 404.938 422.078 405.359 420.859 405.672C419.672 405.953 418.5 406.094 417.344 406.094H409.188L413.312 403.328C413.531 402.516 413.734 401.547 413.922 400.422C414.141 399.297 414.328 398.094 414.484 396.812C414.641 395.5 414.766 394.156 414.859 392.781C414.984 391.375 415.094 390 415.188 388.656C415.375 385.562 415.516 382.281 415.609 378.812C415.672 374.031 415.734 369.406 415.797 364.938C415.828 363.031 415.859 361.078 415.891 359.078C415.922 357.047 415.938 355.078 415.938 353.172C415.969 351.234 416 349.406 416.031 347.688C416.062 345.938 416.078 344.391 416.078 343.047L407.641 343.703L416.781 338.219C417.312 338.312 417.891 338.375 418.516 338.406C419.172 338.406 419.844 338.406 420.531 338.406C421.875 338.406 423.203 338.359 424.516 338.266C425.828 338.141 427.125 338.016 428.406 337.891C429.719 337.734 431 337.594 432.25 337.469C433.5 337.344 434.766 337.281 436.047 337.281C438.547 337.281 441 337.703 443.406 338.547C445.812 339.391 447.922 340.609 449.734 342.203C451.578 343.797 453.016 345.734 454.047 348.016C455.078 350.297 455.453 352.859 455.172 355.703ZM476.219 399.391C476.156 399.422 476.125 399.438 476.125 399.438H476.078V399.484V399.438H476.125C476.156 399.406 476.188 399.391 476.219 399.391Z" fill="white"/>
<path d="M362.359 401.125C360.703 402.062 359.109 402.844 357.578 403.469C356.078 404.094 354.672 404.594 353.359 404.969C352.047 405.344 350.859 405.609 349.797 405.766C348.766 405.922 347.875 406 347.125 406H340.094L345.203 403.141C345.734 402.453 346.25 401.766 346.75 401.078C347.25 400.391 347.672 399.75 348.016 399.156C348.422 398.5 348.797 397.844 349.141 397.188C350.109 395.219 351.547 392.031 353.453 387.625C354.234 385.75 355.156 383.516 356.219 380.922C357.312 378.328 358.562 375.312 359.969 371.875C361.375 368.438 362.938 364.531 364.656 360.156C366.375 355.781 368.297 350.875 370.422 345.438L378.578 337.938L396.953 400.234C398.266 400.578 399.516 400.797 400.703 400.891C401.922 400.984 403.062 401.031 404.125 401.031C404.688 401.031 405.203 401.031 405.672 401.031C406.141 401 406.547 400.969 406.891 400.938C407.266 400.906 407.625 400.859 407.969 400.797C406.156 401.672 404.578 402.438 403.234 403.094C401.891 403.719 400.688 404.25 399.625 404.688C398.594 405.125 397.625 405.453 396.719 405.672C395.844 405.891 394.953 406 394.047 406H386.547L388.984 404.453L381.484 379.609C380.578 379.859 379.531 380.109 378.344 380.359C377.156 380.578 375.734 380.781 374.078 380.969C372.453 381.156 370.547 381.328 368.359 381.484C366.203 381.641 363.703 381.781 360.859 381.906C359.547 384.688 358.344 387.156 357.25 389.312C356.156 391.469 355.172 393.344 354.297 394.938C353.422 396.531 352.641 397.875 351.953 398.969C351.297 400.062 350.734 400.938 350.266 401.594C350.797 401.688 351.391 401.766 352.047 401.828C352.703 401.859 353.359 401.875 354.016 401.875C355.016 401.875 356 401.844 356.969 401.781C357.969 401.688 358.875 401.594 359.688 401.5C360.625 401.375 361.516 401.25 362.359 401.125ZM368.922 376.328C373.141 376.328 376.969 376.234 380.406 376.047L373.234 352.234C371.297 357.203 369.516 361.641 367.891 365.547C366.297 369.453 364.781 373.047 363.344 376.328H368.922Z" fill="white"/>
<path d="M352.281 340.516C351.937 340.703 351.406 341 350.687 341.406C350.062 341.75 349.203 342.25 348.109 342.906C347.047 343.531 345.656 344.344 343.937 345.344C344.469 344.656 344.703 344.172 344.641 343.891C344.609 343.578 344.469 343.375 344.219 343.281C343.906 343.156 343.484 343.141 342.953 343.234C342.641 343.297 341.969 343.375 340.937 343.469C339.906 343.531 338.609 343.594 337.047 343.656C335.516 343.719 333.766 343.781 331.797 343.844C329.828 343.906 327.75 343.953 325.562 343.984C325.437 349.203 325.328 353.875 325.234 358C325.141 362.125 325.047 365.781 324.953 368.969C324.891 372.156 324.828 374.922 324.766 377.266C324.734 379.609 324.703 381.609 324.672 383.266C324.578 387.141 324.531 389.828 324.531 391.328C324.5 392.484 324.344 393.625 324.062 394.75C323.812 395.719 323.437 396.766 322.937 397.891C322.437 398.984 321.719 399.984 320.781 400.891C321.375 400.953 321.937 401 322.469 401.031C323 401.031 323.531 401.031 324.062 401.031C325.531 401.031 326.844 400.969 328 400.844C329.187 400.688 330.203 400.531 331.047 400.375C331.891 400.219 332.562 400.062 333.062 399.906C333.594 399.75 333.922 399.641 334.047 399.578C332.391 400.703 331.016 401.672 329.922 402.484C328.828 403.297 327.844 403.969 326.969 404.5C326.094 405 325.234 405.375 324.391 405.625C323.547 405.875 322.562 406 321.437 406C319.937 406 318.656 405.938 317.594 405.812C316.562 405.688 315.516 405.625 314.453 405.625C313.922 405.625 313.375 405.656 312.812 405.719C312.281 405.75 311.672 405.844 310.984 406C311.859 405.25 312.656 404.438 313.375 403.562C314.125 402.656 314.75 401.562 315.25 400.281C315.75 399 316.141 397.469 316.422 395.688C316.703 393.906 316.844 391.75 316.844 389.219V344.266C314.125 344.328 311.453 344.391 308.828 344.453C306.234 344.516 303.891 344.578 301.797 344.641C299.703 344.672 297.937 344.719 296.5 344.781C295.094 344.844 294.203 344.891 293.828 344.922C292.953 345.016 292.328 344.984 291.953 344.828C291.578 344.672 291.406 344.438 291.437 344.125C291.469 343.781 291.703 343.375 292.141 342.906C292.547 342.438 293.109 341.938 293.828 341.406L300.25 336.766C299.781 337.328 299.625 337.75 299.781 338.031C299.969 338.312 300.25 338.531 300.625 338.688C301.062 338.844 301.641 338.938 302.359 338.969C302.859 338.969 303.875 338.953 305.406 338.922C306.937 338.891 308.797 338.859 310.984 338.828C313.203 338.766 315.656 338.719 318.344 338.688C321.031 338.625 323.766 338.562 326.547 338.5C329.328 338.406 332.062 338.328 334.75 338.266C337.437 338.203 339.875 338.156 342.062 338.125C344.281 338.062 346.156 338.016 347.687 337.984C349.219 337.922 350.234 337.875 350.734 337.844C351.703 337.812 352.406 337.891 352.844 338.078C353.281 338.266 353.516 338.516 353.547 338.828C353.609 339.141 353.5 339.453 353.219 339.766C352.969 340.078 352.656 340.328 352.281 340.516ZM334.047 399.578V399.531C334.078 399.5 334.109 399.484 334.141 399.484L334.047 399.578Z" fill="white"/>
<path d="M289 386.219C289 387.812 288.484 389.453 287.453 391.14C286.422 392.828 285.062 394.469 283.375 396.062C281.719 397.625 279.844 399.109 277.75 400.515C275.688 401.922 273.594 403.172 271.469 404.265C269.375 405.328 267.359 406.172 265.422 406.797C263.484 407.453 261.844 407.797 260.5 407.828C259.219 407.89 257.844 407.781 256.375 407.5C254.906 407.219 253.5 406.859 252.156 406.422C250.844 406.015 249.656 405.578 248.594 405.109C247.562 404.609 246.859 404.172 246.484 403.797C246.266 403.547 246.078 403.281 245.922 403C245.797 402.687 245.734 402.359 245.734 402.015C245.734 401.64 245.828 401.265 246.016 400.89C246.234 400.484 246.578 400.078 247.047 399.672C247.484 399.328 248.031 398.89 248.688 398.359C249.25 397.922 249.969 397.359 250.844 396.672C251.719 395.953 252.797 395.094 254.078 394.094C253.609 394.562 253.312 395 253.188 395.406C253.062 395.812 253.016 396.187 253.047 396.531C253.078 396.906 253.203 397.25 253.422 397.562C253.734 397.969 254.281 398.422 255.062 398.922C255.844 399.422 256.781 399.89 257.875 400.328C259 400.734 260.25 401.078 261.625 401.359C263.031 401.64 264.484 401.781 265.984 401.781C267.828 401.781 269.656 401.609 271.469 401.265C273.281 400.89 274.906 400.281 276.344 399.437C277.812 398.594 278.984 397.484 279.859 396.109C280.766 394.703 281.219 392.969 281.219 390.906C281.219 389 280.766 387.328 279.859 385.89C278.984 384.422 277.828 383.109 276.391 381.953C274.953 380.797 273.297 379.75 271.422 378.812C269.578 377.844 267.688 376.89 265.75 375.953C263.844 375.015 261.953 374.062 260.078 373.094C258.234 372.125 256.594 371.047 255.156 369.859C253.719 368.64 252.547 367.281 251.641 365.781C250.766 364.25 250.328 362.484 250.328 360.484C250.328 358.547 250.797 356.656 251.734 354.812C252.703 352.937 253.969 351.187 255.531 349.562C257.094 347.906 258.875 346.375 260.875 344.969C262.906 343.562 264.984 342.359 267.109 341.359C269.234 340.328 271.312 339.531 273.344 338.969C275.406 338.375 277.266 338.062 278.922 338.031C280.516 338 282.047 338.078 283.516 338.265C284.984 338.422 286.219 338.672 287.219 339.015C288.219 339.359 288.906 339.797 289.281 340.328C289.656 340.828 289.562 341.406 289 342.062C288.531 342.594 287.953 343.156 287.266 343.75C286.641 344.281 285.875 344.875 284.969 345.531C284.062 346.187 282.953 346.89 281.641 347.64C281.891 347.265 282.031 346.937 282.062 346.656C282.094 346.344 282.078 346.094 282.016 345.906C281.922 345.687 281.797 345.5 281.641 345.344C281.422 345.156 281.031 344.953 280.469 344.734C279.938 344.515 279.266 344.297 278.453 344.078C277.641 343.859 276.719 343.687 275.688 343.562C274.656 343.406 273.562 343.328 272.406 343.328C270.531 343.328 268.719 343.562 266.969 344.031C265.25 344.469 263.719 345.156 262.375 346.094C261.062 347.031 260 348.219 259.188 349.656C258.406 351.094 258.016 352.781 258.016 354.719C258.016 356.844 258.453 358.703 259.328 360.297C260.234 361.89 261.406 363.312 262.844 364.562C264.312 365.781 265.969 366.89 267.812 367.89C269.688 368.89 271.578 369.859 273.484 370.797C275.422 371.703 277.312 372.64 279.156 373.609C281.031 374.578 282.688 375.656 284.125 376.844C285.594 378.031 286.766 379.39 287.641 380.922C288.547 382.422 289 384.187 289 386.219Z" fill="white"/>
<path d="M216.625 386.219C216.625 387.812 216.109 389.453 215.078 391.14C214.047 392.828 212.688 394.469 211 396.062C209.344 397.625 207.469 399.109 205.375 400.515C203.312 401.922 201.219 403.172 199.094 404.265C197 405.328 194.984 406.172 193.047 406.797C191.109 407.453 189.469 407.797 188.125 407.828C186.844 407.89 185.469 407.781 184 407.5C182.531 407.219 181.125 406.859 179.781 406.422C178.469 406.015 177.281 405.578 176.219 405.109C175.188 404.609 174.484 404.172 174.109 403.797C173.891 403.547 173.703 403.281 173.547 403C173.422 402.687 173.359 402.359 173.359 402.015C173.359 401.64 173.453 401.265 173.641 400.89C173.859 400.484 174.203 400.078 174.672 399.672C175.109 399.328 175.656 398.89 176.312 398.359C176.875 397.922 177.594 397.359 178.469 396.672C179.344 395.953 180.422 395.094 181.703 394.094C181.234 394.562 180.938 395 180.812 395.406C180.688 395.812 180.641 396.187 180.672 396.531C180.703 396.906 180.828 397.25 181.047 397.562C181.359 397.969 181.906 398.422 182.688 398.922C183.469 399.422 184.406 399.89 185.5 400.328C186.625 400.734 187.875 401.078 189.25 401.359C190.656 401.64 192.109 401.781 193.609 401.781C195.453 401.781 197.281 401.609 199.094 401.265C200.906 400.89 202.531 400.281 203.969 399.437C205.438 398.594 206.609 397.484 207.484 396.109C208.391 394.703 208.844 392.969 208.844 390.906C208.844 389 208.391 387.328 207.484 385.89C206.609 384.422 205.453 383.109 204.016 381.953C202.578 380.797 200.922 379.75 199.047 378.812C197.203 377.844 195.312 376.89 193.375 375.953C191.469 375.015 189.578 374.062 187.703 373.094C185.859 372.125 184.219 371.047 182.781 369.859C181.344 368.64 180.172 367.281 179.266 365.781C178.391 364.25 177.953 362.484 177.953 360.484C177.953 358.547 178.422 356.656 179.359 354.812C180.328 352.937 181.594 351.187 183.156 349.562C184.719 347.906 186.5 346.375 188.5 344.969C190.531 343.562 192.609 342.359 194.734 341.359C196.859 340.328 198.938 339.531 200.969 338.969C203.031 338.375 204.891 338.062 206.547 338.031C208.141 338 209.672 338.078 211.141 338.265C212.609 338.422 213.844 338.672 214.844 339.015C215.844 339.359 216.531 339.797 216.906 340.328C217.281 340.828 217.188 341.406 216.625 342.062C216.156 342.594 215.578 343.156 214.891 343.75C214.266 344.281 213.5 344.875 212.594 345.531C211.688 346.187 210.578 346.89 209.266 347.64C209.516 347.265 209.656 346.937 209.688 346.656C209.719 346.344 209.703 346.094 209.641 345.906C209.547 345.687 209.422 345.5 209.266 345.344C209.047 345.156 208.656 344.953 208.094 344.734C207.562 344.515 206.891 344.297 206.078 344.078C205.266 343.859 204.344 343.687 203.312 343.562C202.281 343.406 201.188 343.328 200.031 343.328C198.156 343.328 196.344 343.562 194.594 344.031C192.875 344.469 191.344 345.156 190 346.094C188.688 347.031 187.625 348.219 186.812 349.656C186.031 351.094 185.641 352.781 185.641 354.719C185.641 356.844 186.078 358.703 186.953 360.297C187.859 361.89 189.031 363.312 190.469 364.562C191.938 365.781 193.594 366.89 195.438 367.89C197.312 368.89 199.203 369.859 201.109 370.797C203.047 371.703 204.938 372.64 206.781 373.609C208.656 374.578 210.312 375.656 211.75 376.844C213.219 378.031 214.391 379.39 215.266 380.922C216.172 382.422 216.625 384.187 216.625 386.219Z" fill="white"/>
<path d="M169.047 340.609C169.016 341.078 168.938 341.703 168.812 342.484C168.688 343.266 168.516 344.141 168.297 345.109C168.109 346.047 167.875 347.031 167.594 348.062C167.344 349.094 167.078 350.078 166.797 351.016C166.516 351.922 166.234 352.75 165.953 353.5C165.672 354.219 165.391 354.766 165.109 355.141C164.672 355.797 164.203 356.5 163.703 357.25C163.234 357.969 162.734 358.672 162.203 359.359V355.516C162.203 354.203 162.188 352.75 162.156 351.156C162.125 349.562 162.031 348.078 161.875 346.703C161.75 345.297 161.547 344.141 161.266 343.234C161.016 342.297 160.656 341.844 160.188 341.875C160.594 341.375 161.094 340.844 161.688 340.281C162.281 339.719 162.906 339.203 163.562 338.734C164.25 338.266 164.938 337.875 165.625 337.562C166.312 337.25 166.969 337.094 167.594 337.094C167.969 337.094 168.25 337.234 168.438 337.516C168.625 337.766 168.766 338.078 168.859 338.453C168.953 338.797 169 339.172 169 339.578C169.031 339.984 169.047 340.328 169.047 340.609Z" fill="white"/>
<path d="M155.5 340.516C155.156 340.703 154.625 341 153.906 341.406C153.281 341.75 152.422 342.25 151.328 342.906C150.266 343.531 148.875 344.344 147.156 345.344C147.687 344.656 147.922 344.172 147.859 343.891C147.828 343.578 147.687 343.375 147.437 343.281C147.125 343.156 146.703 343.141 146.172 343.234C145.859 343.297 145.187 343.375 144.156 343.469C143.125 343.531 141.828 343.594 140.266 343.656C138.734 343.719 136.984 343.781 135.016 343.844C133.047 343.906 130.969 343.953 128.781 343.984C128.656 349.203 128.547 353.875 128.453 358C128.359 362.125 128.266 365.781 128.172 368.969C128.109 372.156 128.047 374.922 127.984 377.266C127.953 379.609 127.922 381.609 127.891 383.266C127.797 387.141 127.75 389.828 127.75 391.328C127.719 392.484 127.562 393.625 127.281 394.75C127.031 395.719 126.656 396.766 126.156 397.891C125.656 398.984 124.937 399.984 124 400.891C124.594 400.953 125.156 401 125.687 401.031C126.219 401.031 126.75 401.031 127.281 401.031C128.75 401.031 130.062 400.969 131.219 400.844C132.406 400.688 133.422 400.531 134.266 400.375C135.109 400.219 135.781 400.062 136.281 399.906C136.812 399.75 137.141 399.641 137.266 399.578C135.609 400.703 134.234 401.672 133.141 402.484C132.047 403.297 131.062 403.969 130.187 404.5C129.312 405 128.453 405.375 127.609 405.625C126.766 405.875 125.781 406 124.656 406C123.156 406 121.875 405.938 120.812 405.812C119.781 405.688 118.734 405.625 117.672 405.625C117.141 405.625 116.594 405.656 116.031 405.719C115.5 405.75 114.891 405.844 114.203 406C115.078 405.25 115.875 404.438 116.594 403.562C117.344 402.656 117.969 401.562 118.469 400.281C118.969 399 119.359 397.469 119.641 395.688C119.922 393.906 120.062 391.75 120.062 389.219V344.266C117.344 344.328 114.672 344.391 112.047 344.453C109.453 344.516 107.109 344.578 105.016 344.641C102.922 344.672 101.156 344.719 99.7187 344.781C98.3124 344.844 97.4218 344.891 97.0468 344.922C96.1718 345.016 95.5468 344.984 95.1718 344.828C94.7968 344.672 94.6249 344.438 94.6562 344.125C94.6874 343.781 94.9218 343.375 95.3593 342.906C95.7656 342.438 96.3281 341.938 97.0468 341.406L103.469 336.766C103 337.328 102.844 337.75 103 338.031C103.187 338.312 103.469 338.531 103.844 338.688C104.281 338.844 104.859 338.938 105.578 338.969C106.078 338.969 107.094 338.953 108.625 338.922C110.156 338.891 112.016 338.859 114.203 338.828C116.422 338.766 118.875 338.719 121.562 338.688C124.25 338.625 126.984 338.562 129.766 338.5C132.547 338.406 135.281 338.328 137.969 338.266C140.656 338.203 143.094 338.156 145.281 338.125C147.5 338.062 149.375 338.016 150.906 337.984C152.437 337.922 153.453 337.875 153.953 337.844C154.922 337.812 155.625 337.891 156.062 338.078C156.5 338.266 156.734 338.516 156.766 338.828C156.828 339.141 156.719 339.453 156.437 339.766C156.187 340.078 155.875 340.328 155.5 340.516ZM137.266 399.578V399.531C137.297 399.5 137.328 399.484 137.359 399.484L137.266 399.578Z" fill="white"/>
<path d="M87.9531 369.25C87.6719 369.375 87.25 369.609 86.6875 369.953C86.1875 370.266 85.4688 370.734 84.5312 371.359C83.625 371.953 82.4219 372.781 80.9219 373.844C81.1719 373.375 81.1562 373.016 80.875 372.766C80.625 372.516 80.2812 372.344 79.8438 372.25C79.3125 372.125 78.6875 372.078 77.9688 372.109C76.8438 372.203 75.2188 372.312 73.0938 372.438C71 372.562 68.625 372.672 65.9688 372.766C65.9688 377.766 65.9375 381.844 65.875 385C65.8125 388.125 65.7656 390.562 65.7344 392.312C65.6719 394.375 65.6094 395.891 65.5469 396.859C65.4844 397.484 65.2969 398.094 64.9844 398.688C64.7344 399.219 64.3281 399.781 63.7656 400.375C63.2344 400.969 62.4844 401.5 61.5156 401.969H82.75C83.75 401.969 84.7656 401.906 85.7969 401.781C86.6719 401.688 87.6094 401.531 88.6094 401.312C89.6094 401.094 90.5625 400.766 91.4688 400.328C89.9062 401.797 88.3594 402.922 86.8281 403.703C85.2969 404.484 83.8906 405.047 82.6094 405.391C81.1094 405.797 79.6875 406.031 78.3438 406.094C75.2812 406.094 72.3906 406.109 69.6719 406.141C66.9531 406.172 64.5 406.234 62.3125 406.328C60.125 406.422 58.25 406.531 56.6875 406.656C55.1562 406.812 54.0469 406.984 53.3594 407.172C54.3281 406.203 55.0781 405.25 55.6094 404.312C56.1719 403.375 56.5938 402.328 56.875 401.172C57.1562 400.016 57.3281 398.719 57.3906 397.281C57.4844 395.812 57.5156 394.078 57.4844 392.078V372.859C56.5781 372.859 55.6875 372.844 54.8125 372.812C53.9688 372.781 53.1406 372.734 52.3281 372.672L57.4844 370C57.4844 368.312 57.4688 366.547 57.4375 364.703C57.4375 362.828 57.4375 360.828 57.4375 358.703C57.4375 356.578 57.4219 354.297 57.3906 351.859C57.3906 349.391 57.3906 346.703 57.3906 343.797C55.9844 343.797 54.6562 343.781 53.4062 343.75C52.1562 343.719 51 343.672 49.9375 343.609L58.6562 338.969C64.5938 338.969 69.6562 338.938 73.8438 338.875C78.0625 338.781 81.5469 338.688 84.2969 338.594C87.4844 338.469 90.1406 338.344 92.2656 338.219C93.3281 338.219 94.0312 338.312 94.375 338.5C94.7188 338.656 94.8594 338.844 94.7969 339.062C94.7344 339.25 94.5469 339.453 94.2344 339.672C93.9219 339.891 93.6406 340.047 93.3906 340.141C93.1406 340.266 92.6719 340.531 91.9844 340.938C91.3906 341.281 90.5469 341.828 89.4531 342.578C88.3906 343.297 86.9219 344.281 85.0469 345.531C85.6719 344.844 85.9375 344.344 85.8438 344.031C85.75 343.688 85.5312 343.438 85.1875 343.281C84.7812 343.125 84.2188 343.047 83.5 343.047C82.9062 343.109 82.0156 343.172 80.8281 343.234C79.6406 343.266 78.25 343.312 76.6562 343.375C75.0938 343.438 73.3906 343.5 71.5469 343.562C69.7031 343.625 67.8125 343.672 65.875 343.703C65.9062 348.703 65.9219 353.188 65.9219 357.156C65.9531 361.125 65.9688 364.766 65.9688 368.078C69.1562 368.047 72.0156 368 74.5469 367.938C77.1094 367.844 79.2969 367.75 81.1094 367.656C83.2344 367.531 85.125 367.422 86.7812 367.328C87.8125 367.297 88.5 367.359 88.8438 367.516C89.1875 367.672 89.3281 367.859 89.2656 368.078C89.2031 368.297 89.0156 368.531 88.7031 368.781C88.4219 369 88.1719 369.156 87.9531 369.25Z" fill="white"/>
<path d="M28.0938 336.578C26.625 337.547 25.2969 338.375 24.1094 339.062C22.9531 339.719 21.8438 340.266 20.7812 340.703C20.625 346.359 20.4844 351.422 20.3594 355.891C20.2656 360.359 20.1719 364.328 20.0781 367.797C20.0156 371.234 19.9531 374.219 19.8906 376.75C19.8594 379.25 19.8281 381.391 19.7969 383.172C19.7031 387.328 19.6719 390.172 19.7031 391.703C19.6719 392.859 19.5469 393.969 19.3281 395.031C19.1406 395.938 18.8438 396.906 18.4375 397.938C18.0312 398.938 17.4688 399.797 16.75 400.516C18.625 400.578 20.375 400.609 22 400.609C23.6562 400.609 25.2344 400.609 26.7344 400.609C31.0156 400.609 34.5469 400.547 37.3281 400.422C40.1094 400.297 42.3281 400.156 43.9844 400C45.6406 399.812 46.8125 399.656 47.5 399.531C48.1875 399.375 48.5938 399.266 48.7188 399.203C47.0625 400.328 45.6875 401.297 44.5938 402.109C43.5 402.922 42.5156 403.594 41.6406 404.125C40.7969 404.625 39.9531 405 39.1094 405.25C38.2969 405.5 37.3438 405.625 36.25 405.625H29.0312C27 405.625 24.7969 405.641 22.4219 405.672C20.0469 405.672 17.7812 405.703 15.625 405.766C13.4688 405.797 11.5312 405.875 9.8125 406C8.125 406.094 6.92188 406.219 6.20312 406.375C7.07812 405.625 7.875 404.812 8.59375 403.938C9.3125 403.062 9.92188 401.984 10.4219 400.703C10.9531 399.422 11.3594 397.891 11.6406 396.109C11.9219 394.297 12.0625 392.125 12.0625 389.594V342.25C11.0938 342.344 9.92188 342.469 8.54688 342.625C7.17188 342.781 5.60938 342.984 3.85938 343.234C5.54688 341.859 7.0625 340.812 8.40625 340.094C9.78125 339.375 10.9531 338.844 11.9219 338.5C13.0469 338.125 14.0469 337.906 14.9219 337.844C16.0156 337.875 17.2188 337.859 18.5312 337.797C19.875 337.734 21.1562 337.656 22.375 337.562C23.625 337.438 24.7656 337.297 25.7969 337.141C26.8281 336.953 27.5938 336.766 28.0938 336.578ZM48.7188 399.203V399.156C48.75 399.125 48.7812 399.109 48.8125 399.109L48.7188 399.203Z" fill="white"/>
</svg>
